<svg viewBox="0 0 24 24" xmlns="http://www.w3.org/2000/svg" xmlns:xlink="http://www.w3.org/1999/xlink"><defs><path id="a" d="M0 0h24.023v24H0z"/></defs><g fill="none" fill-rule="evenodd"><mask id="b" fill="#fff"><use xlink:href="#a"/></mask><path d="M15.622 11.198a4.438 4.438 0 0 0-4.385 4.38h-.002l.001.056a2.833 2.833 0 0 1-2.834 2.833 2.833 2.833 0 1 1 0-5.665h.001a4.388 4.388 0 0 0 3.112-1.295 4.377 4.377 0 0 0 1.271-3.12v-.022a2.834 2.834 0 0 1 2.836-2.832 2.834 2.834 0 0 1 2.835 2.833 2.834 2.834 0 0 1-2.835 2.832M12.012 0C5.378 0 0 5.373 0 12c0 6.628 5.378 12 12.012 12s12.011-5.372 12.011-12c0-6.627-5.377-12-12.011-12" fill="#00C9EA" mask="url(#b)"/><path d="M77.731 3.464h-2.455a.244.244 0 0 0-.244.244V6.16c0 .134.11.243.244.243h2.455c.135 0 .244-.11.244-.243V3.708a.244.244 0 0 0-.244-.244m-20.217 4.66H55.06a.244.244 0 0 0-.244.243v7.895c0 .374-.124.729-.35 1a5.762 5.762 0 0 1-1.198 1.08 3.622 3.622 0 0 1-2.067.625c-.992 0-1.76-.26-2.282-.773s-.787-1.303-.787-2.348v-7.48a.244.244 0 0 0-.244-.243h-2.455a.244.244 0 0 0-.244.244v7.86c0 1.594.483 2.9 1.436 3.878.952.979 2.29 1.475 3.976 1.475.944 0 1.822-.207 2.61-.615.778-.401 1.428-.911 1.932-1.516v1.533c0 .134.11.244.244.244h2.128c.135 0 .244-.11.244-.244V8.367a.244.244 0 0 0-.244-.244m12.61.329c-.808-.453-1.76-.683-2.829-.683-.943 0-1.82.207-2.61.614-.778.402-1.427.912-1.932 1.517V8.367a.244.244 0 0 0-.243-.244h-2.156a.244.244 0 0 0-.243.244v12.615c0 .134.109.243.243.243h2.455a.243.243 0 0 0 .244-.243v-7.88c0-.387.143-.763.401-1.059a6.11 6.11 0 0 1 1.175-1.037 3.623 3.623 0 0 1 2.066-.624c.9 0 1.641.269 2.201.8.558.532.841 1.312.841 2.32v7.48c0 .134.11.243.244.243h2.455a.243.243 0 0 0 .244-.243v-7.86c0-1.033-.226-1.965-.67-2.772a4.813 4.813 0 0 0-1.886-1.898m7.607-.329h-2.455a.244.244 0 0 0-.244.244v12.615c0 .134.11.244.244.244h2.455c.135 0 .244-.11.244-.244V8.367a.243.243 0 0 0-.244-.244m-34.248 10.19h-8.672a1.101 1.101 0 0 1-1.093-1.087V2.373a.244.244 0 0 0-.243-.244H30.8a.244.244 0 0 0-.243.244v15.72a3.138 3.138 0 0 0 3.136 3.132h9.79c.134 0 .243-.11.243-.243v-2.425a.244.244 0 0 0-.244-.244m46.273-10.19h-4.16a.341.341 0 0 1-.341-.339l-.002-3.747a.242.242 0 0 0-.416-.172L82.41 6.302a.241.241 0 0 0-.072.172V7.8a.34.34 0 0 1-.338.322h-1.763a.244.244 0 0 0-.244.244v2.098c0 .134.11.244.244.244h1.837a.341.341 0 0 1 .264.312v6.214c0 1.45.42 2.545 1.246 3.252.825.707 1.924 1.065 3.266 1.065h2.905a.243.243 0 0 0 .244-.243v-2.277a.244.244 0 0 0-.244-.244h-2.032c-1.44 0-1.916-.433-1.92-.438-.39-.343-.55-.824-.55-1.66v-5.645a.34.34 0 0 1 .331-.336h4.171c.135 0 .244-.11.244-.244V8.367a.244.244 0 0 0-.244-.244" fill="#FFF"/></g></svg>